<svg xmlns="http://www.w3.org/2000/svg" viewBox="0 0 1000 480" font-family="-apple-system,Segoe UI,Helvetica,Arial,sans-serif"><defs><linearGradient id="gA" x1="0" y1="0" x2="0" y2="1"><stop offset="0%" stop-color="#7c9cff" stop-opacity=".42"/><stop offset="55%" stop-color="#7c9cff" stop-opacity=".12"/><stop offset="100%" stop-color="#7c9cff" stop-opacity="0"/></linearGradient><linearGradient id="gS" x1="0" y1="0" x2="1" y2="0"><stop offset="0%" stop-color="#56e0c2"/><stop offset="100%" stop-color="#7c9cff"/></linearGradient></defs><rect width="1000" height="480" rx="16" fill="#0a0c12"/><text x="78" y="40" fill="#e9edf6" font-size="21" font-weight="700">Card implementation progress</text><text x="78" y="64" fill="#8b93a7" font-size="13">6,737 distinct cards · 2026-01-18 → 2026-06-29 · 134 active days · busiest day +755</text><rect x="604" y="30" width="18" height="3" rx="1.5" fill="#7c9cff"/><text x="628" y="36" fill="#8b93a7" font-size="12">Total implemented</text><rect x="764" y="27" width="9" height="9" rx="2" fill="#56e0c2" opacity=".7"/><text x="780" y="36" fill="#8b93a7" font-size="12">Added per day</text><line x1="78" y1="440.0" x2="922" y2="440.0" stroke="#1a1f2c"/><text x="68" y="444.0" fill="#9fb2ff" font-size="11" text-anchor="end">0</text><line x1="78" y1="390.3" x2="922" y2="390.3" stroke="#1a1f2c"/><text x="68" y="394.3" fill="#9fb2ff" font-size="11" text-anchor="end">1,000</text><line x1="78" y1="340.6" x2="922" y2="340.6" stroke="#1a1f2c"/><text x="68" y="344.6" fill="#9fb2ff" font-size="11" text-anchor="end">2,000</text><line x1="78" y1="290.9" x2="922" y2="290.9" stroke="#1a1f2c"/><text x="68" y="294.9" fill="#9fb2ff" font-size="11" text-anchor="end">3,000</text><line x1="78" y1="241.1" x2="922" y2="241.1" stroke="#1a1f2c"/><text x="68" y="245.1" fill="#9fb2ff" font-size="11" text-anchor="end">4,000</text><line x1="78" y1="191.4" x2="922" y2="191.4" stroke="#1a1f2c"/><text x="68" y="195.4" fill="#9fb2ff" font-size="11" text-anchor="end">5,000</text><line x1="78" y1="141.7" x2="922" y2="141.7" stroke="#1a1f2c"/><text x="68" y="145.7" fill="#9fb2ff" font-size="11" text-anchor="end">6,000</text><line x1="78" y1="92.0" x2="922" y2="92.0" stroke="#1a1f2c"/><text x="68" y="96.0" fill="#9fb2ff" font-size="11" text-anchor="end">7,000</text><text x="932" y="444.0" fill="#56e0c2" font-size="11">0</text><text x="932" y="391.9" fill="#56e0c2" font-size="11">266</text><text x="932" y="339.9" fill="#56e0c2" font-size="11">532</text><text x="932" y="287.8" fill="#56e0c2" font-size="11">798</text><text x="78.0" y="466" fill="#5a6276" font-size="11" text-anchor="middle">Jan</text><text x="150.9" y="466" fill="#5a6276" font-size="11" text-anchor="middle">Feb</text><text x="296.8" y="466" fill="#5a6276" font-size="11" text-anchor="middle">Mar</text><text x="458.3" y="466" fill="#5a6276" font-size="11" text-anchor="middle">Apr</text><text x="614.6" y="466" fill="#5a6276" font-size="11" text-anchor="middle">May</text><text x="776.1" y="466" fill="#5a6276" font-size="11" text-anchor="middle">Jun</text><rect x="76.6" y="438.6" width="2.8" height="1.4" fill="#56e0c2" opacity=".7"/><rect x="107.8" y="401.8" width="2.8" height="38.2" fill="#56e0c2" opacity=".7"/><rect x="149.5" y="433.9" width="2.8" height="6.1" fill="#56e0c2" opacity=".7"/><rect x="175.6" y="424.9" width="2.8" height="15.1" fill="#56e0c2" opacity=".7"/><rect x="180.8" y="431.4" width="2.8" height="8.6" fill="#56e0c2" opacity=".7"/><rect x="186.0" y="433.1" width="2.8" height="6.9" fill="#56e0c2" opacity=".7"/><rect x="191.2" y="437.3" width="2.8" height="2.7" fill="#56e0c2" opacity=".7"/><rect x="196.4" y="436.5" width="2.8" height="3.5" fill="#56e0c2" opacity=".7"/><rect x="201.6" y="435.9" width="2.8" height="4.1" fill="#56e0c2" opacity=".7"/><rect x="206.8" y="439.8" width="2.8" height="0.2" fill="#56e0c2" opacity=".7"/><rect x="212.0" y="433.5" width="2.8" height="6.5" fill="#56e0c2" opacity=".7"/><rect x="217.2" y="438.4" width="2.8" height="1.6" fill="#56e0c2" opacity=".7"/><rect x="222.5" y="433.9" width="2.8" height="6.1" fill="#56e0c2" opacity=".7"/><rect x="227.7" y="436.7" width="2.8" height="3.3" fill="#56e0c2" opacity=".7"/><rect x="238.1" y="439.8" width="2.8" height="0.2" fill="#56e0c2" opacity=".7"/><rect x="243.3" y="435.3" width="2.8" height="4.7" fill="#56e0c2" opacity=".7"/><rect x="248.5" y="435.7" width="2.8" height="4.3" fill="#56e0c2" opacity=".7"/><rect x="253.7" y="437.8" width="2.8" height="2.2" fill="#56e0c2" opacity=".7"/><rect x="258.9" y="439.0" width="2.8" height="1.0" fill="#56e0c2" opacity=".7"/><rect x="264.1" y="439.8" width="2.8" height="0.2" fill="#56e0c2" opacity=".7"/><rect x="269.3" y="435.9" width="2.8" height="4.1" fill="#56e0c2" opacity=".7"/><rect x="274.6" y="435.3" width="2.8" height="4.7" fill="#56e0c2" opacity=".7"/><rect x="279.8" y="434.7" width="2.8" height="5.3" fill="#56e0c2" opacity=".7"/><rect x="285.0" y="432.0" width="2.8" height="8.0" fill="#56e0c2" opacity=".7"/><rect x="290.2" y="432.8" width="2.8" height="7.2" fill="#56e0c2" opacity=".7"/><rect x="295.4" y="422.0" width="2.8" height="18.0" fill="#56e0c2" opacity=".7"/><rect x="300.6" y="432.8" width="2.8" height="7.2" fill="#56e0c2" opacity=".7"/><rect x="305.8" y="435.3" width="2.8" height="4.7" fill="#56e0c2" opacity=".7"/><rect x="311.0" y="433.7" width="2.8" height="6.3" fill="#56e0c2" opacity=".7"/><rect x="316.2" y="437.8" width="2.8" height="2.2" fill="#56e0c2" opacity=".7"/><rect x="321.4" y="433.9" width="2.8" height="6.1" fill="#56e0c2" opacity=".7"/><rect x="326.7" y="434.7" width="2.8" height="5.3" fill="#56e0c2" opacity=".7"/><rect x="331.9" y="433.5" width="2.8" height="6.5" fill="#56e0c2" opacity=".7"/><rect x="337.1" y="436.3" width="2.8" height="3.7" fill="#56e0c2" opacity=".7"/><rect x="342.3" y="438.2" width="2.8" height="1.8" fill="#56e0c2" opacity=".7"/><rect x="347.5" y="439.2" width="2.8" height="0.8" fill="#56e0c2" opacity=".7"/><rect x="352.7" y="418.7" width="2.8" height="21.3" fill="#56e0c2" opacity=".7"/><rect x="357.9" y="432.8" width="2.8" height="7.2" fill="#56e0c2" opacity=".7"/><rect x="363.1" y="435.5" width="2.8" height="4.5" fill="#56e0c2" opacity=".7"/><rect x="368.3" y="435.3" width="2.8" height="4.7" fill="#56e0c2" opacity=".7"/><rect x="373.5" y="438.8" width="2.8" height="1.2" fill="#56e0c2" opacity=".7"/><rect x="378.7" y="437.1" width="2.8" height="2.9" fill="#56e0c2" opacity=".7"/><rect x="384.0" y="434.1" width="2.8" height="5.9" fill="#56e0c2" opacity=".7"/><rect x="389.2" y="439.8" width="2.8" height="0.2" fill="#56e0c2" opacity=".7"/><rect x="394.4" y="436.7" width="2.8" height="3.3" fill="#56e0c2" opacity=".7"/><rect x="404.8" y="438.4" width="2.8" height="1.6" fill="#56e0c2" opacity=".7"/><rect x="410.0" y="439.4" width="2.8" height="0.6" fill="#56e0c2" opacity=".7"/><rect x="420.4" y="438.8" width="2.8" height="1.2" fill="#56e0c2" opacity=".7"/><rect x="425.6" y="437.7" width="2.8" height="2.3" fill="#56e0c2" opacity=".7"/><rect x="430.8" y="432.4" width="2.8" height="7.6" fill="#56e0c2" opacity=".7"/><rect x="436.1" y="432.0" width="2.8" height="8.0" fill="#56e0c2" opacity=".7"/><rect x="441.3" y="434.7" width="2.8" height="5.3" fill="#56e0c2" opacity=".7"/><rect x="446.5" y="433.3" width="2.8" height="6.7" fill="#56e0c2" opacity=".7"/><rect x="451.7" y="438.8" width="2.8" height="1.2" fill="#56e0c2" opacity=".7"/><rect x="462.1" y="435.5" width="2.8" height="4.5" fill="#56e0c2" opacity=".7"/><rect x="467.3" y="431.2" width="2.8" height="8.8" fill="#56e0c2" opacity=".7"/><rect x="472.5" y="439.4" width="2.8" height="0.6" fill="#56e0c2" opacity=".7"/><rect x="509.0" y="439.8" width="2.8" height="0.2" fill="#56e0c2" opacity=".7"/><rect x="514.2" y="436.5" width="2.8" height="3.5" fill="#56e0c2" opacity=".7"/><rect x="519.4" y="439.2" width="2.8" height="0.8" fill="#56e0c2" opacity=".7"/><rect x="524.6" y="439.8" width="2.8" height="0.2" fill="#56e0c2" opacity=".7"/><rect x="529.8" y="438.2" width="2.8" height="1.8" fill="#56e0c2" opacity=".7"/><rect x="535.0" y="437.5" width="2.8" height="2.5" fill="#56e0c2" opacity=".7"/><rect x="540.3" y="438.2" width="2.8" height="1.8" fill="#56e0c2" opacity=".7"/><rect x="545.5" y="438.0" width="2.8" height="2.0" fill="#56e0c2" opacity=".7"/><rect x="550.7" y="435.1" width="2.8" height="4.9" fill="#56e0c2" opacity=".7"/><rect x="555.9" y="438.0" width="2.8" height="2.0" fill="#56e0c2" opacity=".7"/><rect x="561.1" y="439.6" width="2.8" height="0.4" fill="#56e0c2" opacity=".7"/><rect x="566.3" y="438.0" width="2.8" height="2.0" fill="#56e0c2" opacity=".7"/><rect x="571.5" y="439.4" width="2.8" height="0.6" fill="#56e0c2" opacity=".7"/><rect x="576.7" y="436.7" width="2.8" height="3.3" fill="#56e0c2" opacity=".7"/><rect x="587.1" y="431.2" width="2.8" height="8.8" fill="#56e0c2" opacity=".7"/><rect x="592.4" y="436.7" width="2.8" height="3.3" fill="#56e0c2" opacity=".7"/><rect x="597.6" y="439.4" width="2.8" height="0.6" fill="#56e0c2" opacity=".7"/><rect x="602.8" y="433.7" width="2.8" height="6.3" fill="#56e0c2" opacity=".7"/><rect x="608.0" y="437.5" width="2.8" height="2.5" fill="#56e0c2" opacity=".7"/><rect x="613.2" y="434.3" width="2.8" height="5.7" fill="#56e0c2" opacity=".7"/><rect x="623.6" y="432.6" width="2.8" height="7.4" fill="#56e0c2" opacity=".7"/><rect x="628.8" y="432.2" width="2.8" height="7.8" fill="#56e0c2" opacity=".7"/><rect x="634.0" y="431.4" width="2.8" height="8.6" fill="#56e0c2" opacity=".7"/><rect x="639.2" y="435.7" width="2.8" height="4.3" fill="#56e0c2" opacity=".7"/><rect x="644.5" y="433.7" width="2.8" height="6.3" fill="#56e0c2" opacity=".7"/><rect x="649.7" y="434.3" width="2.8" height="5.7" fill="#56e0c2" opacity=".7"/><rect x="654.9" y="434.5" width="2.8" height="5.5" fill="#56e0c2" opacity=".7"/><rect x="660.1" y="432.8" width="2.8" height="7.2" fill="#56e0c2" opacity=".7"/><rect x="665.3" y="433.0" width="2.8" height="7.0" fill="#56e0c2" opacity=".7"/><rect x="670.5" y="436.1" width="2.8" height="3.9" fill="#56e0c2" opacity=".7"/><rect x="675.7" y="438.2" width="2.8" height="1.8" fill="#56e0c2" opacity=".7"/><rect x="680.9" y="434.7" width="2.8" height="5.3" fill="#56e0c2" opacity=".7"/><rect x="686.1" y="431.6" width="2.8" height="8.4" fill="#56e0c2" opacity=".7"/><rect x="691.3" y="436.9" width="2.8" height="3.1" fill="#56e0c2" opacity=".7"/><rect x="696.6" y="435.3" width="2.8" height="4.7" fill="#56e0c2" opacity=".7"/><rect x="701.8" y="436.5" width="2.8" height="3.5" fill="#56e0c2" opacity=".7"/><rect x="707.0" y="439.8" width="2.8" height="0.2" fill="#56e0c2" opacity=".7"/><rect x="712.2" y="439.4" width="2.8" height="0.6" fill="#56e0c2" opacity=".7"/><rect x="717.4" y="439.0" width="2.8" height="1.0" fill="#56e0c2" opacity=".7"/><rect x="722.6" y="438.4" width="2.8" height="1.6" fill="#56e0c2" opacity=".7"/><rect x="727.8" y="438.6" width="2.8" height="1.4" fill="#56e0c2" opacity=".7"/><rect x="733.0" y="439.6" width="2.8" height="0.4" fill="#56e0c2" opacity=".7"/><rect x="738.2" y="439.0" width="2.8" height="1.0" fill="#56e0c2" opacity=".7"/><rect x="743.4" y="426.9" width="2.8" height="13.1" fill="#56e0c2" opacity=".7"/><rect x="748.7" y="409.3" width="2.8" height="30.7" fill="#56e0c2" opacity=".7"/><rect x="753.9" y="431.6" width="2.8" height="8.4" fill="#56e0c2" opacity=".7"/><rect x="759.1" y="427.5" width="2.8" height="12.5" fill="#56e0c2" opacity=".7"/><rect x="764.3" y="389.9" width="2.8" height="50.1" fill="#56e0c2" opacity=".7"/><rect x="769.5" y="417.9" width="2.8" height="22.1" fill="#56e0c2" opacity=".7"/><rect x="774.7" y="420.8" width="2.8" height="19.2" fill="#56e0c2" opacity=".7"/><rect x="779.9" y="424.1" width="2.8" height="15.9" fill="#56e0c2" opacity=".7"/><rect x="785.1" y="428.5" width="2.8" height="11.5" fill="#56e0c2" opacity=".7"/><rect x="790.3" y="431.4" width="2.8" height="8.6" fill="#56e0c2" opacity=".7"/><rect x="795.5" y="439.6" width="2.8" height="0.4" fill="#56e0c2" opacity=".7"/><rect x="800.7" y="393.6" width="2.8" height="46.4" fill="#56e0c2" opacity=".7"/><rect x="806.0" y="359.7" width="2.8" height="80.3" fill="#56e0c2" opacity=".7"/><rect x="811.2" y="402.0" width="2.8" height="38.0" fill="#56e0c2" opacity=".7"/><rect x="816.4" y="436.1" width="2.8" height="3.9" fill="#56e0c2" opacity=".7"/><rect x="821.6" y="436.1" width="2.8" height="3.9" fill="#56e0c2" opacity=".7"/><rect x="826.8" y="438.2" width="2.8" height="1.8" fill="#56e0c2" opacity=".7"/><rect x="832.0" y="292.2" width="2.8" height="147.8" fill="#56e0c2" opacity=".7"/><rect x="837.2" y="411.8" width="2.8" height="28.2" fill="#56e0c2" opacity=".7"/><rect x="842.4" y="426.1" width="2.8" height="13.9" fill="#56e0c2" opacity=".7"/><rect x="847.6" y="395.0" width="2.8" height="45.0" fill="#56e0c2" opacity=".7"/><rect x="852.8" y="427.1" width="2.8" height="12.9" fill="#56e0c2" opacity=".7"/><rect x="858.1" y="432.6" width="2.8" height="7.4" fill="#56e0c2" opacity=".7"/><rect x="863.3" y="397.9" width="2.8" height="42.1" fill="#56e0c2" opacity=".7"/><rect x="868.5" y="402.4" width="2.8" height="37.6" fill="#56e0c2" opacity=".7"/><rect x="873.7" y="438.4" width="2.8" height="1.6" fill="#56e0c2" opacity=".7"/><rect x="878.9" y="425.7" width="2.8" height="14.3" fill="#56e0c2" opacity=".7"/><rect x="884.1" y="438.0" width="2.8" height="2.0" fill="#56e0c2" opacity=".7"/><rect x="894.5" y="424.9" width="2.8" height="15.1" fill="#56e0c2" opacity=".7"/><rect x="899.7" y="433.3" width="2.8" height="6.7" fill="#56e0c2" opacity=".7"/><rect x="904.9" y="412.4" width="2.8" height="27.6" fill="#56e0c2" opacity=".7"/><rect x="910.2" y="426.5" width="2.8" height="13.5" fill="#56e0c2" opacity=".7"/><rect x="915.4" y="399.3" width="2.8" height="40.7" fill="#56e0c2" opacity=".7"/><rect x="920.6" y="402.2" width="2.8" height="37.8" fill="#56e0c2" opacity=".7"/><path d="M 78.0 440.0 L 78.0 439.7 L 83.2 439.7 L 88.4 439.7 L 93.6 439.7 L 98.8 439.7 L 104.0 439.7 L 109.3 430.0 L 114.5 430.0 L 119.7 430.0 L 124.9 430.0 L 130.1 430.0 L 135.3 430.0 L 140.5 430.0 L 145.7 430.0 L 150.9 428.4 L 156.1 428.4 L 161.4 428.4 L 166.6 428.4 L 171.8 428.4 L 177.0 424.6 L 182.2 422.4 L 187.4 420.7 L 192.6 420.0 L 197.8 419.1 L 203.0 418.0 L 208.2 418.0 L 213.5 416.3 L 218.7 415.9 L 223.9 414.4 L 229.1 413.6 L 234.3 413.6 L 239.5 413.5 L 244.7 412.3 L 249.9 411.2 L 255.1 410.7 L 260.3 410.4 L 265.6 410.4 L 270.8 409.3 L 276.0 408.1 L 281.2 406.8 L 286.4 404.8 L 291.6 402.9 L 296.8 398.3 L 302.0 396.5 L 307.2 395.3 L 312.4 393.7 L 317.7 393.2 L 322.9 391.6 L 328.1 390.3 L 333.3 388.6 L 338.5 387.7 L 343.7 387.3 L 348.9 387.1 L 354.1 381.6 L 359.3 379.8 L 364.5 378.7 L 369.8 377.5 L 375.0 377.2 L 380.2 376.4 L 385.4 374.9 L 390.6 374.9 L 395.8 374.0 L 401.0 374.0 L 406.2 373.6 L 411.4 373.5 L 416.6 373.5 L 421.9 373.2 L 427.1 372.6 L 432.3 370.6 L 437.5 368.6 L 442.7 367.3 L 447.9 365.6 L 453.1 365.3 L 458.3 365.3 L 463.5 364.1 L 468.7 361.9 L 474.0 361.7 L 479.2 361.7 L 484.4 361.7 L 489.6 361.7 L 494.8 361.7 L 500.0 361.7 L 505.2 361.7 L 510.4 361.7 L 515.6 360.8 L 520.8 360.6 L 526.0 360.6 L 531.3 360.1 L 536.5 359.5 L 541.7 359.0 L 546.9 358.5 L 552.1 357.3 L 557.3 356.8 L 562.5 356.7 L 567.7 356.2 L 572.9 356.0 L 578.1 355.2 L 583.4 355.2 L 588.6 353.0 L 593.8 352.1 L 599.0 352.0 L 604.2 350.4 L 609.4 349.7 L 614.6 348.3 L 619.8 348.3 L 625.0 346.4 L 630.2 344.4 L 635.5 342.2 L 640.7 341.1 L 645.9 339.5 L 651.1 338.1 L 656.3 336.7 L 661.5 334.9 L 666.7 333.1 L 671.9 332.1 L 677.1 331.6 L 682.3 330.3 L 687.6 328.1 L 692.8 327.3 L 698.0 326.2 L 703.2 325.3 L 708.4 325.2 L 713.6 325.1 L 718.8 324.8 L 724.0 324.4 L 729.2 324.1 L 734.4 324.0 L 739.7 323.7 L 744.9 320.4 L 750.1 312.6 L 755.3 310.4 L 760.5 307.3 L 765.7 294.5 L 770.9 288.9 L 776.1 284.0 L 781.3 280.0 L 786.5 277.1 L 791.8 274.9 L 797.0 274.8 L 802.2 263.0 L 807.4 242.6 L 812.6 233.0 L 817.8 232.0 L 823.0 231.0 L 828.2 230.6 L 833.4 193.0 L 838.6 185.9 L 843.9 182.3 L 849.1 170.9 L 854.3 167.6 L 859.5 165.7 L 864.7 155.0 L 869.9 145.5 L 875.1 145.1 L 880.3 141.5 L 885.5 141.0 L 890.7 141.0 L 896.0 137.1 L 901.2 135.5 L 906.4 128.4 L 911.6 125.0 L 916.8 114.7 L 922.0 105.1 L 922.0 440.0 Z" fill="url(#gA)"/><path d="M 78.0 439.7 L 83.2 439.7 L 88.4 439.7 L 93.6 439.7 L 98.8 439.7 L 104.0 439.7 L 109.3 430.0 L 114.5 430.0 L 119.7 430.0 L 124.9 430.0 L 130.1 430.0 L 135.3 430.0 L 140.5 430.0 L 145.7 430.0 L 150.9 428.4 L 156.1 428.4 L 161.4 428.4 L 166.6 428.4 L 171.8 428.4 L 177.0 424.6 L 182.2 422.4 L 187.4 420.7 L 192.6 420.0 L 197.8 419.1 L 203.0 418.0 L 208.2 418.0 L 213.5 416.3 L 218.7 415.9 L 223.9 414.4 L 229.1 413.6 L 234.3 413.6 L 239.5 413.5 L 244.7 412.3 L 249.9 411.2 L 255.1 410.7 L 260.3 410.4 L 265.6 410.4 L 270.8 409.3 L 276.0 408.1 L 281.2 406.8 L 286.4 404.8 L 291.6 402.9 L 296.8 398.3 L 302.0 396.5 L 307.2 395.3 L 312.4 393.7 L 317.7 393.2 L 322.9 391.6 L 328.1 390.3 L 333.3 388.6 L 338.5 387.7 L 343.7 387.3 L 348.9 387.1 L 354.1 381.6 L 359.3 379.8 L 364.5 378.7 L 369.8 377.5 L 375.0 377.2 L 380.2 376.4 L 385.4 374.9 L 390.6 374.9 L 395.8 374.0 L 401.0 374.0 L 406.2 373.6 L 411.4 373.5 L 416.6 373.5 L 421.9 373.2 L 427.1 372.6 L 432.3 370.6 L 437.5 368.6 L 442.7 367.3 L 447.9 365.6 L 453.1 365.3 L 458.3 365.3 L 463.5 364.1 L 468.7 361.9 L 474.0 361.7 L 479.2 361.7 L 484.4 361.7 L 489.6 361.7 L 494.8 361.7 L 500.0 361.7 L 505.2 361.7 L 510.4 361.7 L 515.6 360.8 L 520.8 360.6 L 526.0 360.6 L 531.3 360.1 L 536.5 359.5 L 541.7 359.0 L 546.9 358.5 L 552.1 357.3 L 557.3 356.8 L 562.5 356.7 L 567.7 356.2 L 572.9 356.0 L 578.1 355.2 L 583.4 355.2 L 588.6 353.0 L 593.8 352.1 L 599.0 352.0 L 604.2 350.4 L 609.4 349.7 L 614.6 348.3 L 619.8 348.3 L 625.0 346.4 L 630.2 344.4 L 635.5 342.2 L 640.7 341.1 L 645.9 339.5 L 651.1 338.1 L 656.3 336.7 L 661.5 334.9 L 666.7 333.1 L 671.9 332.1 L 677.1 331.6 L 682.3 330.3 L 687.6 328.1 L 692.8 327.3 L 698.0 326.2 L 703.2 325.3 L 708.4 325.2 L 713.6 325.1 L 718.8 324.8 L 724.0 324.4 L 729.2 324.1 L 734.4 324.0 L 739.7 323.7 L 744.9 320.4 L 750.1 312.6 L 755.3 310.4 L 760.5 307.3 L 765.7 294.5 L 770.9 288.9 L 776.1 284.0 L 781.3 280.0 L 786.5 277.1 L 791.8 274.9 L 797.0 274.8 L 802.2 263.0 L 807.4 242.6 L 812.6 233.0 L 817.8 232.0 L 823.0 231.0 L 828.2 230.6 L 833.4 193.0 L 838.6 185.9 L 843.9 182.3 L 849.1 170.9 L 854.3 167.6 L 859.5 165.7 L 864.7 155.0 L 869.9 145.5 L 875.1 145.1 L 880.3 141.5 L 885.5 141.0 L 890.7 141.0 L 896.0 137.1 L 901.2 135.5 L 906.4 128.4 L 911.6 125.0 L 916.8 114.7 L 922.0 105.1" fill="none" stroke="url(#gS)" stroke-width="2.5" stroke-linejoin="round"/></svg>
