<svg xmlns="http://www.w3.org/2000/svg" viewBox="0 0 1000 480" font-family="-apple-system,Segoe UI,Helvetica,Arial,sans-serif"><defs><linearGradient id="gA" x1="0" y1="0" x2="0" y2="1"><stop offset="0%" stop-color="#7c9cff" stop-opacity=".42"/><stop offset="55%" stop-color="#7c9cff" stop-opacity=".12"/><stop offset="100%" stop-color="#7c9cff" stop-opacity="0"/></linearGradient><linearGradient id="gS" x1="0" y1="0" x2="1" y2="0"><stop offset="0%" stop-color="#56e0c2"/><stop offset="100%" stop-color="#7c9cff"/></linearGradient></defs><rect width="1000" height="480" rx="16" fill="#0a0c12"/><text x="78" y="40" fill="#e9edf6" font-size="21" font-weight="700">Card implementation progress</text><text x="78" y="64" fill="#8b93a7" font-size="13">4,967 distinct cards · 2026-01-18 → 2026-06-13 · 118 active days · busiest day +696</text><rect x="604" y="30" width="18" height="3" rx="1.5" fill="#7c9cff"/><text x="628" y="36" fill="#8b93a7" font-size="12">Total implemented</text><rect x="764" y="27" width="9" height="9" rx="2" fill="#56e0c2" opacity=".7"/><text x="780" y="36" fill="#8b93a7" font-size="12">Added per day</text><line x1="78" y1="440.0" x2="922" y2="440.0" stroke="#1a1f2c"/><text x="68" y="444.0" fill="#9fb2ff" font-size="11" text-anchor="end">0</text><line x1="78" y1="405.2" x2="922" y2="405.2" stroke="#1a1f2c"/><text x="68" y="409.2" fill="#9fb2ff" font-size="11" text-anchor="end">500</text><line x1="78" y1="370.4" x2="922" y2="370.4" stroke="#1a1f2c"/><text x="68" y="374.4" fill="#9fb2ff" font-size="11" text-anchor="end">1,000</text><line x1="78" y1="335.6" x2="922" y2="335.6" stroke="#1a1f2c"/><text x="68" y="339.6" fill="#9fb2ff" font-size="11" text-anchor="end">1,500</text><line x1="78" y1="300.8" x2="922" y2="300.8" stroke="#1a1f2c"/><text x="68" y="304.8" fill="#9fb2ff" font-size="11" text-anchor="end">2,000</text><line x1="78" y1="266.0" x2="922" y2="266.0" stroke="#1a1f2c"/><text x="68" y="270.0" fill="#9fb2ff" font-size="11" text-anchor="end">2,500</text><line x1="78" y1="231.2" x2="922" y2="231.2" stroke="#1a1f2c"/><text x="68" y="235.2" fill="#9fb2ff" font-size="11" text-anchor="end">3,000</text><line x1="78" y1="196.4" x2="922" y2="196.4" stroke="#1a1f2c"/><text x="68" y="200.4" fill="#9fb2ff" font-size="11" text-anchor="end">3,500</text><line x1="78" y1="161.6" x2="922" y2="161.6" stroke="#1a1f2c"/><text x="68" y="165.6" fill="#9fb2ff" font-size="11" text-anchor="end">4,000</text><line x1="78" y1="126.8" x2="922" y2="126.8" stroke="#1a1f2c"/><text x="68" y="130.8" fill="#9fb2ff" font-size="11" text-anchor="end">4,500</text><line x1="78" y1="92.0" x2="922" y2="92.0" stroke="#1a1f2c"/><text x="68" y="96.0" fill="#9fb2ff" font-size="11" text-anchor="end">5,000</text><text x="932" y="444.0" fill="#56e0c2" font-size="11">0</text><text x="932" y="391.9" fill="#56e0c2" font-size="11">233</text><text x="932" y="339.7" fill="#56e0c2" font-size="11">466</text><text x="932" y="287.6" fill="#56e0c2" font-size="11">699</text><text x="78.0" y="466" fill="#5a6276" font-size="11" text-anchor="middle">Jan</text><text x="158.9" y="466" fill="#5a6276" font-size="11" text-anchor="middle">Feb</text><text x="320.8" y="466" fill="#5a6276" font-size="11" text-anchor="middle">Mar</text><text x="500.0" y="466" fill="#5a6276" font-size="11" text-anchor="middle">Apr</text><text x="673.4" y="466" fill="#5a6276" font-size="11" text-anchor="middle">May</text><text x="852.6" y="466" fill="#5a6276" font-size="11" text-anchor="middle">Jun</text><rect x="111.1" y="396.4" width="3.2" height="43.6" fill="#56e0c2" opacity=".7"/><rect x="157.4" y="433.1" width="3.2" height="6.9" fill="#56e0c2" opacity=".7"/><rect x="186.3" y="422.8" width="3.2" height="17.2" fill="#56e0c2" opacity=".7"/><rect x="192.0" y="430.2" width="3.2" height="9.8" fill="#56e0c2" opacity=".7"/><rect x="197.8" y="432.2" width="3.2" height="7.8" fill="#56e0c2" opacity=".7"/><rect x="203.6" y="436.9" width="3.2" height="3.1" fill="#56e0c2" opacity=".7"/><rect x="209.4" y="436.0" width="3.2" height="4.0" fill="#56e0c2" opacity=".7"/><rect x="215.2" y="435.3" width="3.2" height="4.7" fill="#56e0c2" opacity=".7"/><rect x="220.9" y="439.8" width="3.2" height="0.2" fill="#56e0c2" opacity=".7"/><rect x="226.7" y="432.6" width="3.2" height="7.4" fill="#56e0c2" opacity=".7"/><rect x="232.5" y="438.2" width="3.2" height="1.8" fill="#56e0c2" opacity=".7"/><rect x="238.3" y="433.1" width="3.2" height="6.9" fill="#56e0c2" opacity=".7"/><rect x="244.1" y="436.2" width="3.2" height="3.8" fill="#56e0c2" opacity=".7"/><rect x="255.6" y="439.8" width="3.2" height="0.2" fill="#56e0c2" opacity=".7"/><rect x="261.4" y="434.6" width="3.2" height="5.4" fill="#56e0c2" opacity=".7"/><rect x="267.2" y="435.1" width="3.2" height="4.9" fill="#56e0c2" opacity=".7"/><rect x="273.0" y="437.5" width="3.2" height="2.5" fill="#56e0c2" opacity=".7"/><rect x="278.7" y="438.9" width="3.2" height="1.1" fill="#56e0c2" opacity=".7"/><rect x="284.5" y="439.8" width="3.2" height="0.2" fill="#56e0c2" opacity=".7"/><rect x="290.3" y="435.3" width="3.2" height="4.7" fill="#56e0c2" opacity=".7"/><rect x="296.1" y="434.6" width="3.2" height="5.4" fill="#56e0c2" opacity=".7"/><rect x="301.9" y="434.0" width="3.2" height="6.0" fill="#56e0c2" opacity=".7"/><rect x="307.7" y="430.8" width="3.2" height="9.2" fill="#56e0c2" opacity=".7"/><rect x="313.4" y="431.7" width="3.2" height="8.3" fill="#56e0c2" opacity=".7"/><rect x="319.2" y="419.4" width="3.2" height="20.6" fill="#56e0c2" opacity=".7"/><rect x="325.0" y="431.7" width="3.2" height="8.3" fill="#56e0c2" opacity=".7"/><rect x="330.8" y="434.6" width="3.2" height="5.4" fill="#56e0c2" opacity=".7"/><rect x="336.6" y="432.8" width="3.2" height="7.2" fill="#56e0c2" opacity=".7"/><rect x="342.3" y="437.5" width="3.2" height="2.5" fill="#56e0c2" opacity=".7"/><rect x="348.1" y="433.1" width="3.2" height="6.9" fill="#56e0c2" opacity=".7"/><rect x="353.9" y="434.0" width="3.2" height="6.0" fill="#56e0c2" opacity=".7"/><rect x="359.7" y="432.6" width="3.2" height="7.4" fill="#56e0c2" opacity=".7"/><rect x="365.5" y="435.7" width="3.2" height="4.3" fill="#56e0c2" opacity=".7"/><rect x="371.2" y="438.0" width="3.2" height="2.0" fill="#56e0c2" opacity=".7"/><rect x="377.0" y="439.1" width="3.2" height="0.9" fill="#56e0c2" opacity=".7"/><rect x="382.8" y="415.6" width="3.2" height="24.4" fill="#56e0c2" opacity=".7"/><rect x="388.6" y="431.7" width="3.2" height="8.3" fill="#56e0c2" opacity=".7"/><rect x="394.4" y="434.9" width="3.2" height="5.1" fill="#56e0c2" opacity=".7"/><rect x="400.1" y="434.6" width="3.2" height="5.4" fill="#56e0c2" opacity=".7"/><rect x="405.9" y="438.7" width="3.2" height="1.3" fill="#56e0c2" opacity=".7"/><rect x="411.7" y="436.6" width="3.2" height="3.4" fill="#56e0c2" opacity=".7"/><rect x="417.5" y="433.3" width="3.2" height="6.7" fill="#56e0c2" opacity=".7"/><rect x="423.3" y="439.8" width="3.2" height="0.2" fill="#56e0c2" opacity=".7"/><rect x="429.1" y="436.2" width="3.2" height="3.8" fill="#56e0c2" opacity=".7"/><rect x="440.6" y="438.2" width="3.2" height="1.8" fill="#56e0c2" opacity=".7"/><rect x="446.4" y="439.3" width="3.2" height="0.7" fill="#56e0c2" opacity=".7"/><rect x="458.0" y="438.7" width="3.2" height="1.3" fill="#56e0c2" opacity=".7"/><rect x="463.7" y="437.3" width="3.2" height="2.7" fill="#56e0c2" opacity=".7"/><rect x="469.5" y="431.3" width="3.2" height="8.7" fill="#56e0c2" opacity=".7"/><rect x="475.3" y="430.8" width="3.2" height="9.2" fill="#56e0c2" opacity=".7"/><rect x="481.1" y="434.0" width="3.2" height="6.0" fill="#56e0c2" opacity=".7"/><rect x="486.9" y="432.4" width="3.2" height="7.6" fill="#56e0c2" opacity=".7"/><rect x="492.6" y="438.7" width="3.2" height="1.3" fill="#56e0c2" opacity=".7"/><rect x="504.2" y="434.9" width="3.2" height="5.1" fill="#56e0c2" opacity=".7"/><rect x="510.0" y="429.9" width="3.2" height="10.1" fill="#56e0c2" opacity=".7"/><rect x="515.8" y="439.3" width="3.2" height="0.7" fill="#56e0c2" opacity=".7"/><rect x="556.2" y="439.8" width="3.2" height="0.2" fill="#56e0c2" opacity=".7"/><rect x="562.0" y="436.0" width="3.2" height="4.0" fill="#56e0c2" opacity=".7"/><rect x="567.8" y="439.1" width="3.2" height="0.9" fill="#56e0c2" opacity=".7"/><rect x="573.6" y="439.8" width="3.2" height="0.2" fill="#56e0c2" opacity=".7"/><rect x="579.4" y="438.0" width="3.2" height="2.0" fill="#56e0c2" opacity=".7"/><rect x="585.1" y="437.1" width="3.2" height="2.9" fill="#56e0c2" opacity=".7"/><rect x="590.9" y="438.0" width="3.2" height="2.0" fill="#56e0c2" opacity=".7"/><rect x="596.7" y="437.8" width="3.2" height="2.2" fill="#56e0c2" opacity=".7"/><rect x="602.5" y="434.4" width="3.2" height="5.6" fill="#56e0c2" opacity=".7"/><rect x="608.3" y="437.8" width="3.2" height="2.2" fill="#56e0c2" opacity=".7"/><rect x="614.0" y="439.6" width="3.2" height="0.4" fill="#56e0c2" opacity=".7"/><rect x="619.8" y="437.8" width="3.2" height="2.2" fill="#56e0c2" opacity=".7"/><rect x="625.6" y="439.3" width="3.2" height="0.7" fill="#56e0c2" opacity=".7"/><rect x="631.4" y="436.2" width="3.2" height="3.8" fill="#56e0c2" opacity=".7"/><rect x="642.9" y="429.9" width="3.2" height="10.1" fill="#56e0c2" opacity=".7"/><rect x="648.7" y="436.2" width="3.2" height="3.8" fill="#56e0c2" opacity=".7"/><rect x="654.5" y="439.3" width="3.2" height="0.7" fill="#56e0c2" opacity=".7"/><rect x="660.3" y="432.8" width="3.2" height="7.2" fill="#56e0c2" opacity=".7"/><rect x="666.1" y="437.1" width="3.2" height="2.9" fill="#56e0c2" opacity=".7"/><rect x="671.8" y="433.5" width="3.2" height="6.5" fill="#56e0c2" opacity=".7"/><rect x="683.4" y="431.5" width="3.2" height="8.5" fill="#56e0c2" opacity=".7"/><rect x="689.2" y="431.1" width="3.2" height="8.9" fill="#56e0c2" opacity=".7"/><rect x="695.0" y="430.2" width="3.2" height="9.8" fill="#56e0c2" opacity=".7"/><rect x="700.7" y="435.1" width="3.2" height="4.9" fill="#56e0c2" opacity=".7"/><rect x="706.5" y="432.8" width="3.2" height="7.2" fill="#56e0c2" opacity=".7"/><rect x="712.3" y="433.5" width="3.2" height="6.5" fill="#56e0c2" opacity=".7"/><rect x="718.1" y="433.7" width="3.2" height="6.3" fill="#56e0c2" opacity=".7"/><rect x="723.9" y="431.7" width="3.2" height="8.3" fill="#56e0c2" opacity=".7"/><rect x="729.7" y="431.9" width="3.2" height="8.1" fill="#56e0c2" opacity=".7"/><rect x="735.4" y="435.5" width="3.2" height="4.5" fill="#56e0c2" opacity=".7"/><rect x="741.2" y="438.0" width="3.2" height="2.0" fill="#56e0c2" opacity=".7"/><rect x="747.0" y="434.0" width="3.2" height="6.0" fill="#56e0c2" opacity=".7"/><rect x="752.8" y="430.4" width="3.2" height="9.6" fill="#56e0c2" opacity=".7"/><rect x="758.6" y="436.4" width="3.2" height="3.6" fill="#56e0c2" opacity=".7"/><rect x="764.3" y="434.6" width="3.2" height="5.4" fill="#56e0c2" opacity=".7"/><rect x="770.1" y="436.0" width="3.2" height="4.0" fill="#56e0c2" opacity=".7"/><rect x="775.9" y="439.8" width="3.2" height="0.2" fill="#56e0c2" opacity=".7"/><rect x="781.7" y="439.3" width="3.2" height="0.7" fill="#56e0c2" opacity=".7"/><rect x="787.5" y="438.9" width="3.2" height="1.1" fill="#56e0c2" opacity=".7"/><rect x="793.2" y="438.2" width="3.2" height="1.8" fill="#56e0c2" opacity=".7"/><rect x="799.0" y="438.4" width="3.2" height="1.6" fill="#56e0c2" opacity=".7"/><rect x="804.8" y="439.6" width="3.2" height="0.4" fill="#56e0c2" opacity=".7"/><rect x="810.6" y="438.9" width="3.2" height="1.1" fill="#56e0c2" opacity=".7"/><rect x="816.4" y="425.0" width="3.2" height="15.0" fill="#56e0c2" opacity=".7"/><rect x="822.1" y="404.9" width="3.2" height="35.1" fill="#56e0c2" opacity=".7"/><rect x="827.9" y="430.4" width="3.2" height="9.6" fill="#56e0c2" opacity=".7"/><rect x="833.7" y="425.7" width="3.2" height="14.3" fill="#56e0c2" opacity=".7"/><rect x="839.5" y="382.7" width="3.2" height="57.3" fill="#56e0c2" opacity=".7"/><rect x="845.3" y="414.7" width="3.2" height="25.3" fill="#56e0c2" opacity=".7"/><rect x="851.1" y="418.1" width="3.2" height="21.9" fill="#56e0c2" opacity=".7"/><rect x="856.8" y="421.9" width="3.2" height="18.1" fill="#56e0c2" opacity=".7"/><rect x="862.6" y="426.8" width="3.2" height="13.2" fill="#56e0c2" opacity=".7"/><rect x="868.4" y="430.2" width="3.2" height="9.8" fill="#56e0c2" opacity=".7"/><rect x="874.2" y="439.6" width="3.2" height="0.4" fill="#56e0c2" opacity=".7"/><rect x="880.0" y="387.0" width="3.2" height="53.0" fill="#56e0c2" opacity=".7"/><rect x="885.7" y="348.3" width="3.2" height="91.7" fill="#56e0c2" opacity=".7"/><rect x="891.5" y="396.6" width="3.2" height="43.4" fill="#56e0c2" opacity=".7"/><rect x="897.3" y="435.5" width="3.2" height="4.5" fill="#56e0c2" opacity=".7"/><rect x="903.1" y="435.5" width="3.2" height="4.5" fill="#56e0c2" opacity=".7"/><rect x="908.9" y="438.2" width="3.2" height="1.8" fill="#56e0c2" opacity=".7"/><rect x="914.6" y="284.3" width="3.2" height="155.7" fill="#56e0c2" opacity=".7"/><rect x="920.4" y="425.2" width="3.2" height="14.8" fill="#56e0c2" opacity=".7"/><path d="M 78.0 440.0 L 78.0 440.0 L 83.8 440.0 L 89.6 440.0 L 95.3 440.0 L 101.1 440.0 L 106.9 440.0 L 112.7 426.4 L 118.5 426.4 L 124.2 426.4 L 130.0 426.4 L 135.8 426.4 L 141.6 426.4 L 147.4 426.4 L 153.2 426.4 L 158.9 424.3 L 164.7 424.3 L 170.5 424.3 L 176.3 424.3 L 182.1 424.3 L 187.8 418.9 L 193.6 415.8 L 199.4 413.4 L 205.2 412.4 L 211.0 411.2 L 216.7 409.7 L 222.5 409.7 L 228.3 407.4 L 234.1 406.8 L 239.9 404.6 L 245.6 403.5 L 251.4 403.5 L 257.2 403.4 L 263.0 401.7 L 268.8 400.2 L 274.5 399.4 L 280.3 399.1 L 286.1 399.0 L 291.9 397.5 L 297.7 395.9 L 303.5 394.0 L 309.2 391.1 L 315.0 388.6 L 320.8 382.2 L 326.6 379.6 L 332.4 377.9 L 338.1 375.7 L 343.9 374.9 L 349.7 372.8 L 355.5 370.9 L 361.3 368.6 L 367.0 367.3 L 372.8 366.6 L 378.6 366.4 L 384.4 358.8 L 390.2 356.2 L 395.9 354.6 L 401.7 352.9 L 407.5 352.5 L 413.3 351.5 L 419.1 349.4 L 424.8 349.3 L 430.6 348.1 L 436.4 348.1 L 442.2 347.6 L 448.0 347.4 L 453.8 347.4 L 459.5 346.9 L 465.3 346.1 L 471.1 343.4 L 476.9 340.5 L 482.7 338.7 L 488.4 336.3 L 494.2 335.9 L 500.0 335.9 L 505.8 334.3 L 511.6 331.1 L 517.3 330.9 L 523.1 330.9 L 528.9 330.9 L 534.7 330.9 L 540.5 330.9 L 546.2 330.9 L 552.0 330.9 L 557.8 330.9 L 563.6 329.6 L 569.4 329.3 L 575.2 329.3 L 580.9 328.6 L 586.7 327.7 L 592.5 327.1 L 598.3 326.4 L 604.1 324.7 L 609.8 324.0 L 615.6 323.8 L 621.4 323.1 L 627.2 322.9 L 633.0 321.7 L 638.7 321.7 L 644.5 318.6 L 650.3 317.4 L 656.1 317.2 L 661.9 315.0 L 667.6 314.1 L 673.4 312.1 L 679.2 312.1 L 685.0 309.4 L 690.8 306.6 L 696.5 303.6 L 702.3 302.1 L 708.1 299.8 L 713.9 297.8 L 719.7 295.9 L 725.5 293.3 L 731.2 290.8 L 737.0 289.4 L 742.8 288.8 L 748.6 286.9 L 754.4 283.9 L 760.1 282.8 L 765.9 281.1 L 771.7 279.9 L 777.5 279.8 L 783.3 279.6 L 789.0 279.2 L 794.8 278.7 L 800.6 278.2 L 806.4 278.0 L 812.2 277.7 L 817.9 273.0 L 823.7 262.1 L 829.5 259.1 L 835.3 254.7 L 841.1 236.8 L 846.8 229.0 L 852.6 222.2 L 858.4 216.5 L 864.2 212.4 L 870.0 209.3 L 875.8 209.2 L 881.5 192.7 L 887.3 164.2 L 893.1 150.7 L 898.9 149.3 L 904.7 147.9 L 910.4 147.3 L 916.2 98.9 L 922.0 94.3 L 922.0 440.0 Z" fill="url(#gA)"/><path d="M 78.0 440.0 L 83.8 440.0 L 89.6 440.0 L 95.3 440.0 L 101.1 440.0 L 106.9 440.0 L 112.7 426.4 L 118.5 426.4 L 124.2 426.4 L 130.0 426.4 L 135.8 426.4 L 141.6 426.4 L 147.4 426.4 L 153.2 426.4 L 158.9 424.3 L 164.7 424.3 L 170.5 424.3 L 176.3 424.3 L 182.1 424.3 L 187.8 418.9 L 193.6 415.8 L 199.4 413.4 L 205.2 412.4 L 211.0 411.2 L 216.7 409.7 L 222.5 409.7 L 228.3 407.4 L 234.1 406.8 L 239.9 404.6 L 245.6 403.5 L 251.4 403.5 L 257.2 403.4 L 263.0 401.7 L 268.8 400.2 L 274.5 399.4 L 280.3 399.1 L 286.1 399.0 L 291.9 397.5 L 297.7 395.9 L 303.5 394.0 L 309.2 391.1 L 315.0 388.6 L 320.8 382.2 L 326.6 379.6 L 332.4 377.9 L 338.1 375.7 L 343.9 374.9 L 349.7 372.8 L 355.5 370.9 L 361.3 368.6 L 367.0 367.3 L 372.8 366.6 L 378.6 366.4 L 384.4 358.8 L 390.2 356.2 L 395.9 354.6 L 401.7 352.9 L 407.5 352.5 L 413.3 351.5 L 419.1 349.4 L 424.8 349.3 L 430.6 348.1 L 436.4 348.1 L 442.2 347.6 L 448.0 347.4 L 453.8 347.4 L 459.5 346.9 L 465.3 346.1 L 471.1 343.4 L 476.9 340.5 L 482.7 338.7 L 488.4 336.3 L 494.2 335.9 L 500.0 335.9 L 505.8 334.3 L 511.6 331.1 L 517.3 330.9 L 523.1 330.9 L 528.9 330.9 L 534.7 330.9 L 540.5 330.9 L 546.2 330.9 L 552.0 330.9 L 557.8 330.9 L 563.6 329.6 L 569.4 329.3 L 575.2 329.3 L 580.9 328.6 L 586.7 327.7 L 592.5 327.1 L 598.3 326.4 L 604.1 324.7 L 609.8 324.0 L 615.6 323.8 L 621.4 323.1 L 627.2 322.9 L 633.0 321.7 L 638.7 321.7 L 644.5 318.6 L 650.3 317.4 L 656.1 317.2 L 661.9 315.0 L 667.6 314.1 L 673.4 312.1 L 679.2 312.1 L 685.0 309.4 L 690.8 306.6 L 696.5 303.6 L 702.3 302.1 L 708.1 299.8 L 713.9 297.8 L 719.7 295.9 L 725.5 293.3 L 731.2 290.8 L 737.0 289.4 L 742.8 288.8 L 748.6 286.9 L 754.4 283.9 L 760.1 282.8 L 765.9 281.1 L 771.7 279.9 L 777.5 279.8 L 783.3 279.6 L 789.0 279.2 L 794.8 278.7 L 800.6 278.2 L 806.4 278.0 L 812.2 277.7 L 817.9 273.0 L 823.7 262.1 L 829.5 259.1 L 835.3 254.7 L 841.1 236.8 L 846.8 229.0 L 852.6 222.2 L 858.4 216.5 L 864.2 212.4 L 870.0 209.3 L 875.8 209.2 L 881.5 192.7 L 887.3 164.2 L 893.1 150.7 L 898.9 149.3 L 904.7 147.9 L 910.4 147.3 L 916.2 98.9 L 922.0 94.3" fill="none" stroke="url(#gS)" stroke-width="2.5" stroke-linejoin="round"/></svg>
