<svg xmlns="http://www.w3.org/2000/svg" viewBox="0 0 1000 480" font-family="-apple-system,Segoe UI,Helvetica,Arial,sans-serif"><defs><linearGradient id="gA" x1="0" y1="0" x2="0" y2="1"><stop offset="0%" stop-color="#7c9cff" stop-opacity=".42"/><stop offset="55%" stop-color="#7c9cff" stop-opacity=".12"/><stop offset="100%" stop-color="#7c9cff" stop-opacity="0"/></linearGradient><linearGradient id="gS" x1="0" y1="0" x2="1" y2="0"><stop offset="0%" stop-color="#56e0c2"/><stop offset="100%" stop-color="#7c9cff"/></linearGradient></defs><rect width="1000" height="480" rx="16" fill="#0a0c12"/><text x="78" y="40" fill="#e9edf6" font-size="21" font-weight="700">Card implementation progress</text><text x="78" y="64" fill="#8b93a7" font-size="13">4,889 distinct cards · 2026-01-18 → 2026-06-12 · 117 active days · busiest day +684</text><rect x="604" y="30" width="18" height="3" rx="1.5" fill="#7c9cff"/><text x="628" y="36" fill="#8b93a7" font-size="12">Total implemented</text><rect x="764" y="27" width="9" height="9" rx="2" fill="#56e0c2" opacity=".7"/><text x="780" y="36" fill="#8b93a7" font-size="12">Added per day</text><line x1="78" y1="440.0" x2="922" y2="440.0" stroke="#1a1f2c"/><text x="68" y="444.0" fill="#9fb2ff" font-size="11" text-anchor="end">0</text><line x1="78" y1="405.2" x2="922" y2="405.2" stroke="#1a1f2c"/><text x="68" y="409.2" fill="#9fb2ff" font-size="11" text-anchor="end">500</text><line x1="78" y1="370.4" x2="922" y2="370.4" stroke="#1a1f2c"/><text x="68" y="374.4" fill="#9fb2ff" font-size="11" text-anchor="end">1,000</text><line x1="78" y1="335.6" x2="922" y2="335.6" stroke="#1a1f2c"/><text x="68" y="339.6" fill="#9fb2ff" font-size="11" text-anchor="end">1,500</text><line x1="78" y1="300.8" x2="922" y2="300.8" stroke="#1a1f2c"/><text x="68" y="304.8" fill="#9fb2ff" font-size="11" text-anchor="end">2,000</text><line x1="78" y1="266.0" x2="922" y2="266.0" stroke="#1a1f2c"/><text x="68" y="270.0" fill="#9fb2ff" font-size="11" text-anchor="end">2,500</text><line x1="78" y1="231.2" x2="922" y2="231.2" stroke="#1a1f2c"/><text x="68" y="235.2" fill="#9fb2ff" font-size="11" text-anchor="end">3,000</text><line x1="78" y1="196.4" x2="922" y2="196.4" stroke="#1a1f2c"/><text x="68" y="200.4" fill="#9fb2ff" font-size="11" text-anchor="end">3,500</text><line x1="78" y1="161.6" x2="922" y2="161.6" stroke="#1a1f2c"/><text x="68" y="165.6" fill="#9fb2ff" font-size="11" text-anchor="end">4,000</text><line x1="78" y1="126.8" x2="922" y2="126.8" stroke="#1a1f2c"/><text x="68" y="130.8" fill="#9fb2ff" font-size="11" text-anchor="end">4,500</text><line x1="78" y1="92.0" x2="922" y2="92.0" stroke="#1a1f2c"/><text x="68" y="96.0" fill="#9fb2ff" font-size="11" text-anchor="end">5,000</text><text x="932" y="444.0" fill="#56e0c2" font-size="11">0</text><text x="932" y="391.9" fill="#56e0c2" font-size="11">233</text><text x="932" y="339.7" fill="#56e0c2" font-size="11">466</text><text x="932" y="287.6" fill="#56e0c2" font-size="11">699</text><text x="78.0" y="466" fill="#5a6276" font-size="11" text-anchor="middle">Jan</text><text x="159.5" y="466" fill="#5a6276" font-size="11" text-anchor="middle">Feb</text><text x="322.5" y="466" fill="#5a6276" font-size="11" text-anchor="middle">Mar</text><text x="502.9" y="466" fill="#5a6276" font-size="11" text-anchor="middle">Apr</text><text x="677.5" y="466" fill="#5a6276" font-size="11" text-anchor="middle">May</text><text x="858.0" y="466" fill="#5a6276" font-size="11" text-anchor="middle">Jun</text><rect x="111.3" y="396.4" width="3.2" height="43.6" fill="#56e0c2" opacity=".7"/><rect x="157.9" y="433.1" width="3.2" height="6.9" fill="#56e0c2" opacity=".7"/><rect x="187.0" y="422.8" width="3.2" height="17.2" fill="#56e0c2" opacity=".7"/><rect x="192.8" y="430.2" width="3.2" height="9.8" fill="#56e0c2" opacity=".7"/><rect x="198.6" y="432.2" width="3.2" height="7.8" fill="#56e0c2" opacity=".7"/><rect x="204.5" y="436.9" width="3.2" height="3.1" fill="#56e0c2" opacity=".7"/><rect x="210.3" y="436.0" width="3.2" height="4.0" fill="#56e0c2" opacity=".7"/><rect x="216.1" y="435.3" width="3.2" height="4.7" fill="#56e0c2" opacity=".7"/><rect x="221.9" y="439.8" width="3.2" height="0.2" fill="#56e0c2" opacity=".7"/><rect x="227.7" y="432.6" width="3.2" height="7.4" fill="#56e0c2" opacity=".7"/><rect x="233.6" y="438.2" width="3.2" height="1.8" fill="#56e0c2" opacity=".7"/><rect x="239.4" y="433.1" width="3.2" height="6.9" fill="#56e0c2" opacity=".7"/><rect x="245.2" y="436.2" width="3.2" height="3.8" fill="#56e0c2" opacity=".7"/><rect x="256.9" y="439.8" width="3.2" height="0.2" fill="#56e0c2" opacity=".7"/><rect x="262.7" y="434.6" width="3.2" height="5.4" fill="#56e0c2" opacity=".7"/><rect x="268.5" y="435.1" width="3.2" height="4.9" fill="#56e0c2" opacity=".7"/><rect x="274.3" y="437.5" width="3.2" height="2.5" fill="#56e0c2" opacity=".7"/><rect x="280.1" y="438.9" width="3.2" height="1.1" fill="#56e0c2" opacity=".7"/><rect x="286.0" y="439.8" width="3.2" height="0.2" fill="#56e0c2" opacity=".7"/><rect x="291.8" y="435.3" width="3.2" height="4.7" fill="#56e0c2" opacity=".7"/><rect x="297.6" y="434.6" width="3.2" height="5.4" fill="#56e0c2" opacity=".7"/><rect x="303.4" y="434.0" width="3.2" height="6.0" fill="#56e0c2" opacity=".7"/><rect x="309.2" y="430.8" width="3.2" height="9.2" fill="#56e0c2" opacity=".7"/><rect x="315.1" y="431.7" width="3.2" height="8.3" fill="#56e0c2" opacity=".7"/><rect x="320.9" y="419.4" width="3.2" height="20.6" fill="#56e0c2" opacity=".7"/><rect x="326.7" y="431.7" width="3.2" height="8.3" fill="#56e0c2" opacity=".7"/><rect x="332.5" y="434.6" width="3.2" height="5.4" fill="#56e0c2" opacity=".7"/><rect x="338.3" y="432.8" width="3.2" height="7.2" fill="#56e0c2" opacity=".7"/><rect x="344.2" y="437.5" width="3.2" height="2.5" fill="#56e0c2" opacity=".7"/><rect x="350.0" y="433.1" width="3.2" height="6.9" fill="#56e0c2" opacity=".7"/><rect x="355.8" y="434.0" width="3.2" height="6.0" fill="#56e0c2" opacity=".7"/><rect x="361.6" y="432.6" width="3.2" height="7.4" fill="#56e0c2" opacity=".7"/><rect x="367.4" y="435.7" width="3.2" height="4.3" fill="#56e0c2" opacity=".7"/><rect x="373.3" y="438.0" width="3.2" height="2.0" fill="#56e0c2" opacity=".7"/><rect x="379.1" y="439.1" width="3.2" height="0.9" fill="#56e0c2" opacity=".7"/><rect x="384.9" y="415.6" width="3.2" height="24.4" fill="#56e0c2" opacity=".7"/><rect x="390.7" y="431.7" width="3.2" height="8.3" fill="#56e0c2" opacity=".7"/><rect x="396.5" y="434.9" width="3.2" height="5.1" fill="#56e0c2" opacity=".7"/><rect x="402.4" y="434.6" width="3.2" height="5.4" fill="#56e0c2" opacity=".7"/><rect x="408.2" y="438.7" width="3.2" height="1.3" fill="#56e0c2" opacity=".7"/><rect x="414.0" y="436.6" width="3.2" height="3.4" fill="#56e0c2" opacity=".7"/><rect x="419.8" y="433.3" width="3.2" height="6.7" fill="#56e0c2" opacity=".7"/><rect x="425.7" y="439.8" width="3.2" height="0.2" fill="#56e0c2" opacity=".7"/><rect x="431.5" y="436.2" width="3.2" height="3.8" fill="#56e0c2" opacity=".7"/><rect x="443.1" y="438.2" width="3.2" height="1.8" fill="#56e0c2" opacity=".7"/><rect x="448.9" y="439.3" width="3.2" height="0.7" fill="#56e0c2" opacity=".7"/><rect x="460.6" y="438.7" width="3.2" height="1.3" fill="#56e0c2" opacity=".7"/><rect x="466.4" y="437.3" width="3.2" height="2.7" fill="#56e0c2" opacity=".7"/><rect x="472.2" y="431.3" width="3.2" height="8.7" fill="#56e0c2" opacity=".7"/><rect x="478.0" y="430.8" width="3.2" height="9.2" fill="#56e0c2" opacity=".7"/><rect x="483.9" y="434.0" width="3.2" height="6.0" fill="#56e0c2" opacity=".7"/><rect x="489.7" y="432.4" width="3.2" height="7.6" fill="#56e0c2" opacity=".7"/><rect x="495.5" y="438.7" width="3.2" height="1.3" fill="#56e0c2" opacity=".7"/><rect x="507.1" y="434.9" width="3.2" height="5.1" fill="#56e0c2" opacity=".7"/><rect x="513.0" y="429.9" width="3.2" height="10.1" fill="#56e0c2" opacity=".7"/><rect x="518.8" y="439.3" width="3.2" height="0.7" fill="#56e0c2" opacity=".7"/><rect x="559.5" y="439.8" width="3.2" height="0.2" fill="#56e0c2" opacity=".7"/><rect x="565.3" y="436.0" width="3.2" height="4.0" fill="#56e0c2" opacity=".7"/><rect x="571.2" y="439.1" width="3.2" height="0.9" fill="#56e0c2" opacity=".7"/><rect x="577.0" y="439.8" width="3.2" height="0.2" fill="#56e0c2" opacity=".7"/><rect x="582.8" y="438.0" width="3.2" height="2.0" fill="#56e0c2" opacity=".7"/><rect x="588.6" y="437.1" width="3.2" height="2.9" fill="#56e0c2" opacity=".7"/><rect x="594.5" y="438.0" width="3.2" height="2.0" fill="#56e0c2" opacity=".7"/><rect x="600.3" y="437.8" width="3.2" height="2.2" fill="#56e0c2" opacity=".7"/><rect x="606.1" y="434.4" width="3.2" height="5.6" fill="#56e0c2" opacity=".7"/><rect x="611.9" y="437.8" width="3.2" height="2.2" fill="#56e0c2" opacity=".7"/><rect x="617.7" y="439.6" width="3.2" height="0.4" fill="#56e0c2" opacity=".7"/><rect x="623.6" y="437.8" width="3.2" height="2.2" fill="#56e0c2" opacity=".7"/><rect x="629.4" y="439.3" width="3.2" height="0.7" fill="#56e0c2" opacity=".7"/><rect x="635.2" y="436.2" width="3.2" height="3.8" fill="#56e0c2" opacity=".7"/><rect x="646.8" y="429.9" width="3.2" height="10.1" fill="#56e0c2" opacity=".7"/><rect x="652.7" y="436.2" width="3.2" height="3.8" fill="#56e0c2" opacity=".7"/><rect x="658.5" y="439.3" width="3.2" height="0.7" fill="#56e0c2" opacity=".7"/><rect x="664.3" y="432.8" width="3.2" height="7.2" fill="#56e0c2" opacity=".7"/><rect x="670.1" y="437.1" width="3.2" height="2.9" fill="#56e0c2" opacity=".7"/><rect x="675.9" y="433.5" width="3.2" height="6.5" fill="#56e0c2" opacity=".7"/><rect x="687.6" y="431.5" width="3.2" height="8.5" fill="#56e0c2" opacity=".7"/><rect x="693.4" y="431.1" width="3.2" height="8.9" fill="#56e0c2" opacity=".7"/><rect x="699.2" y="430.2" width="3.2" height="9.8" fill="#56e0c2" opacity=".7"/><rect x="705.0" y="435.1" width="3.2" height="4.9" fill="#56e0c2" opacity=".7"/><rect x="710.9" y="432.8" width="3.2" height="7.2" fill="#56e0c2" opacity=".7"/><rect x="716.7" y="433.5" width="3.2" height="6.5" fill="#56e0c2" opacity=".7"/><rect x="722.5" y="433.7" width="3.2" height="6.3" fill="#56e0c2" opacity=".7"/><rect x="728.3" y="431.7" width="3.2" height="8.3" fill="#56e0c2" opacity=".7"/><rect x="734.1" y="431.9" width="3.2" height="8.1" fill="#56e0c2" opacity=".7"/><rect x="740.0" y="435.5" width="3.2" height="4.5" fill="#56e0c2" opacity=".7"/><rect x="745.8" y="438.0" width="3.2" height="2.0" fill="#56e0c2" opacity=".7"/><rect x="751.6" y="434.0" width="3.2" height="6.0" fill="#56e0c2" opacity=".7"/><rect x="757.4" y="430.4" width="3.2" height="9.6" fill="#56e0c2" opacity=".7"/><rect x="763.3" y="436.4" width="3.2" height="3.6" fill="#56e0c2" opacity=".7"/><rect x="769.1" y="434.6" width="3.2" height="5.4" fill="#56e0c2" opacity=".7"/><rect x="774.9" y="436.0" width="3.2" height="4.0" fill="#56e0c2" opacity=".7"/><rect x="780.7" y="439.8" width="3.2" height="0.2" fill="#56e0c2" opacity=".7"/><rect x="786.5" y="439.3" width="3.2" height="0.7" fill="#56e0c2" opacity=".7"/><rect x="792.4" y="438.9" width="3.2" height="1.1" fill="#56e0c2" opacity=".7"/><rect x="798.2" y="438.2" width="3.2" height="1.8" fill="#56e0c2" opacity=".7"/><rect x="804.0" y="438.4" width="3.2" height="1.6" fill="#56e0c2" opacity=".7"/><rect x="809.8" y="439.6" width="3.2" height="0.4" fill="#56e0c2" opacity=".7"/><rect x="815.6" y="438.9" width="3.2" height="1.1" fill="#56e0c2" opacity=".7"/><rect x="821.5" y="425.0" width="3.2" height="15.0" fill="#56e0c2" opacity=".7"/><rect x="827.3" y="404.9" width="3.2" height="35.1" fill="#56e0c2" opacity=".7"/><rect x="833.1" y="430.4" width="3.2" height="9.6" fill="#56e0c2" opacity=".7"/><rect x="838.9" y="425.7" width="3.2" height="14.3" fill="#56e0c2" opacity=".7"/><rect x="844.7" y="382.7" width="3.2" height="57.3" fill="#56e0c2" opacity=".7"/><rect x="850.6" y="414.7" width="3.2" height="25.3" fill="#56e0c2" opacity=".7"/><rect x="856.4" y="418.1" width="3.2" height="21.9" fill="#56e0c2" opacity=".7"/><rect x="862.2" y="421.9" width="3.2" height="18.1" fill="#56e0c2" opacity=".7"/><rect x="868.0" y="426.8" width="3.2" height="13.2" fill="#56e0c2" opacity=".7"/><rect x="873.8" y="430.2" width="3.2" height="9.8" fill="#56e0c2" opacity=".7"/><rect x="879.7" y="439.6" width="3.2" height="0.4" fill="#56e0c2" opacity=".7"/><rect x="885.5" y="387.0" width="3.2" height="53.0" fill="#56e0c2" opacity=".7"/><rect x="891.3" y="348.3" width="3.2" height="91.7" fill="#56e0c2" opacity=".7"/><rect x="897.1" y="396.6" width="3.2" height="43.4" fill="#56e0c2" opacity=".7"/><rect x="902.9" y="435.5" width="3.2" height="4.5" fill="#56e0c2" opacity=".7"/><rect x="908.8" y="435.5" width="3.2" height="4.5" fill="#56e0c2" opacity=".7"/><rect x="914.6" y="438.2" width="3.2" height="1.8" fill="#56e0c2" opacity=".7"/><rect x="920.4" y="287.0" width="3.2" height="153.0" fill="#56e0c2" opacity=".7"/><path d="M 78.0 440.0 L 78.0 440.0 L 83.8 440.0 L 89.6 440.0 L 95.5 440.0 L 101.3 440.0 L 107.1 440.0 L 112.9 426.4 L 118.7 426.4 L 124.6 426.4 L 130.4 426.4 L 136.2 426.4 L 142.0 426.4 L 147.8 426.4 L 153.7 426.4 L 159.5 424.3 L 165.3 424.3 L 171.1 424.3 L 177.0 424.3 L 182.8 424.3 L 188.6 418.9 L 194.4 415.8 L 200.2 413.4 L 206.1 412.4 L 211.9 411.2 L 217.7 409.7 L 223.5 409.7 L 229.3 407.4 L 235.2 406.8 L 241.0 404.6 L 246.8 403.5 L 252.6 403.5 L 258.4 403.4 L 264.3 401.7 L 270.1 400.2 L 275.9 399.4 L 281.7 399.1 L 287.5 399.0 L 293.4 397.5 L 299.2 395.9 L 305.0 394.0 L 310.8 391.1 L 316.6 388.6 L 322.5 382.2 L 328.3 379.6 L 334.1 377.9 L 339.9 375.7 L 345.8 374.9 L 351.6 372.8 L 357.4 370.9 L 363.2 368.6 L 369.0 367.3 L 374.9 366.6 L 380.7 366.4 L 386.5 358.8 L 392.3 356.2 L 398.1 354.6 L 404.0 352.9 L 409.8 352.5 L 415.6 351.5 L 421.4 349.4 L 427.2 349.3 L 433.1 348.1 L 438.9 348.1 L 444.7 347.6 L 450.5 347.4 L 456.3 347.4 L 462.2 346.9 L 468.0 346.1 L 473.8 343.4 L 479.6 340.5 L 485.4 338.7 L 491.3 336.3 L 497.1 335.9 L 502.9 335.9 L 508.7 334.3 L 514.6 331.1 L 520.4 330.9 L 526.2 330.9 L 532.0 330.9 L 537.8 330.9 L 543.7 330.9 L 549.5 330.9 L 555.3 330.9 L 561.1 330.9 L 566.9 329.6 L 572.8 329.3 L 578.6 329.3 L 584.4 328.6 L 590.2 327.7 L 596.0 327.1 L 601.9 326.4 L 607.7 324.7 L 613.5 324.0 L 619.3 323.8 L 625.1 323.1 L 631.0 322.9 L 636.8 321.7 L 642.6 321.7 L 648.4 318.6 L 654.2 317.4 L 660.1 317.2 L 665.9 315.0 L 671.7 314.1 L 677.5 312.1 L 683.4 312.1 L 689.2 309.4 L 695.0 306.6 L 700.8 303.6 L 706.6 302.1 L 712.5 299.8 L 718.3 297.8 L 724.1 295.9 L 729.9 293.3 L 735.7 290.8 L 741.6 289.4 L 747.4 288.8 L 753.2 286.9 L 759.0 283.9 L 764.8 282.8 L 770.7 281.1 L 776.5 279.9 L 782.3 279.8 L 788.1 279.6 L 793.9 279.2 L 799.8 278.7 L 805.6 278.2 L 811.4 278.0 L 817.2 277.7 L 823.0 273.0 L 828.9 262.1 L 834.7 259.1 L 840.5 254.7 L 846.3 236.8 L 852.2 229.0 L 858.0 222.2 L 863.8 216.5 L 869.6 212.4 L 875.4 209.3 L 881.3 209.2 L 887.1 192.7 L 892.9 164.2 L 898.7 150.7 L 904.5 149.3 L 910.4 147.9 L 916.2 147.3 L 922.0 99.7 L 922.0 440.0 Z" fill="url(#gA)"/><path d="M 78.0 440.0 L 83.8 440.0 L 89.6 440.0 L 95.5 440.0 L 101.3 440.0 L 107.1 440.0 L 112.9 426.4 L 118.7 426.4 L 124.6 426.4 L 130.4 426.4 L 136.2 426.4 L 142.0 426.4 L 147.8 426.4 L 153.7 426.4 L 159.5 424.3 L 165.3 424.3 L 171.1 424.3 L 177.0 424.3 L 182.8 424.3 L 188.6 418.9 L 194.4 415.8 L 200.2 413.4 L 206.1 412.4 L 211.9 411.2 L 217.7 409.7 L 223.5 409.7 L 229.3 407.4 L 235.2 406.8 L 241.0 404.6 L 246.8 403.5 L 252.6 403.5 L 258.4 403.4 L 264.3 401.7 L 270.1 400.2 L 275.9 399.4 L 281.7 399.1 L 287.5 399.0 L 293.4 397.5 L 299.2 395.9 L 305.0 394.0 L 310.8 391.1 L 316.6 388.6 L 322.5 382.2 L 328.3 379.6 L 334.1 377.9 L 339.9 375.7 L 345.8 374.9 L 351.6 372.8 L 357.4 370.9 L 363.2 368.6 L 369.0 367.3 L 374.9 366.6 L 380.7 366.4 L 386.5 358.8 L 392.3 356.2 L 398.1 354.6 L 404.0 352.9 L 409.8 352.5 L 415.6 351.5 L 421.4 349.4 L 427.2 349.3 L 433.1 348.1 L 438.9 348.1 L 444.7 347.6 L 450.5 347.4 L 456.3 347.4 L 462.2 346.9 L 468.0 346.1 L 473.8 343.4 L 479.6 340.5 L 485.4 338.7 L 491.3 336.3 L 497.1 335.9 L 502.9 335.9 L 508.7 334.3 L 514.6 331.1 L 520.4 330.9 L 526.2 330.9 L 532.0 330.9 L 537.8 330.9 L 543.7 330.9 L 549.5 330.9 L 555.3 330.9 L 561.1 330.9 L 566.9 329.6 L 572.8 329.3 L 578.6 329.3 L 584.4 328.6 L 590.2 327.7 L 596.0 327.1 L 601.9 326.4 L 607.7 324.7 L 613.5 324.0 L 619.3 323.8 L 625.1 323.1 L 631.0 322.9 L 636.8 321.7 L 642.6 321.7 L 648.4 318.6 L 654.2 317.4 L 660.1 317.2 L 665.9 315.0 L 671.7 314.1 L 677.5 312.1 L 683.4 312.1 L 689.2 309.4 L 695.0 306.6 L 700.8 303.6 L 706.6 302.1 L 712.5 299.8 L 718.3 297.8 L 724.1 295.9 L 729.9 293.3 L 735.7 290.8 L 741.6 289.4 L 747.4 288.8 L 753.2 286.9 L 759.0 283.9 L 764.8 282.8 L 770.7 281.1 L 776.5 279.9 L 782.3 279.8 L 788.1 279.6 L 793.9 279.2 L 799.8 278.7 L 805.6 278.2 L 811.4 278.0 L 817.2 277.7 L 823.0 273.0 L 828.9 262.1 L 834.7 259.1 L 840.5 254.7 L 846.3 236.8 L 852.2 229.0 L 858.0 222.2 L 863.8 216.5 L 869.6 212.4 L 875.4 209.3 L 881.3 209.2 L 887.1 192.7 L 892.9 164.2 L 898.7 150.7 L 904.5 149.3 L 910.4 147.9 L 916.2 147.3 L 922.0 99.7" fill="none" stroke="url(#gS)" stroke-width="2.5" stroke-linejoin="round"/></svg>
